<?xml version="1.0" encoding="utf-8"?>
<!-- Generator: Adobe Illustrator 15.0.2, SVG Export Plug-In . SVG Version: 6.00 Build 0)  -->
<!DOCTYPE svg PUBLIC "-//W3C//DTD SVG 1.1//EN" "http://www.w3.org/Graphics/SVG/1.1/DTD/svg11.dtd">
<svg version="1.1" id="Layer_1" xmlns="http://www.w3.org/2000/svg" xmlns:xlink="http://www.w3.org/1999/xlink" x="0px" y="0px"
	 width="86.016px" height="82.5px" viewBox="0 0 86.016 82.5" enable-background="new 0 0 86.016 82.5" xml:space="preserve">
<g>
	<g>
		<g>
			<g>
				
					<linearGradient id="SVGID_1_" gradientUnits="userSpaceOnUse" x1="127.0679" y1="32.9819" x2="127.0679" y2="-10.0422" gradientTransform="matrix(0.9903 0.139 0.139 -0.9903 -80.9978 82.8718)">
					<stop  offset="0" style="stop-color:#F7941E"/>
					<stop  offset="1" style="stop-color:#F15A29"/>
				</linearGradient>
				<path fill="url(#SVGID_1_)" d="M56.138,30.663c0,0,2.928-2.983,1.023-5.319c-2.744-3.371-1.676-6.057-1.676-6.057
					s-3.328,3.74-2.625,6.843C53.612,29.455,56.138,30.663,56.138,30.663z"/>
				
					<linearGradient id="SVGID_2_" gradientUnits="userSpaceOnUse" x1="33.6123" y1="41.3491" x2="33.6123" y2="-1.6753" gradientTransform="matrix(1 0 0 -1 8.5 58.5)">
					<stop  offset="0" style="stop-color:#F7941E"/>
					<stop  offset="1" style="stop-color:#F15A29"/>
				</linearGradient>
				<path fill="url(#SVGID_2_)" d="M61.261,46.824c-0.965-15.023-17.973-18.948-16.967-31.746c-1.619,1.44-8.135,7.881-5.498,13.846
					c1.178,2.659,2.746,7.544-1.359,9.064c-5.27,1.95-8.021-4.094-6.199-11.246c-1.938,2.148-7.613,9.588-8.34,20.465
					c-0.402,5.988,0.23,9.37,0.539,11.07c0.281,1.57,1.543,3.677,4.07,3.882c2.527,0.204,5.932,0.521,14.723,0.521
					s11.787-0.143,14.43-0.521c2.662-0.382,3.846-2.392,4.193-3.978C61.194,56.607,61.755,54.5,61.261,46.824z"/>
			</g>
		</g>
	</g>
	<path fill="#F1F2F2" d="M57.624,44.986l-10.529,7.338c-0.734,0.514-2.021,1.24-2.865,1.621c-0.146,0.065-0.939,0.39-2.273,0.39
		c-1.373,0-2.186-0.351-2.273-0.388c-0.846-0.383-2.131-1.11-2.867-1.623L26.29,44.986c-0.162-0.11-0.264-0.277-0.281-0.455
		c-0.014-0.178,0.053-0.35,0.189-0.482c0.262-0.255,0.756-0.289,1.064-0.074l10.529,7.338c0.658,0.457,1.855,1.136,2.613,1.479
		c0,0,0.572,0.234,1.553,0.234c0.949,0,1.502-0.215,1.562-0.237c0.748-0.341,1.943-1.019,2.604-1.476l10.523-7.338
		c0.312-0.217,0.807-0.181,1.066,0.074c0.139,0.133,0.205,0.305,0.191,0.482C57.886,44.709,57.784,44.876,57.624,44.986z"/>
</g>
</svg>
