<?xml version="1.0" encoding="utf-8"?>
<!-- Generator: Adobe Illustrator 17.0.0, SVG Export Plug-In . SVG Version: 6.00 Build 0)  -->
<!DOCTYPE svg PUBLIC "-//W3C//DTD SVG 1.1//EN" "http://www.w3.org/Graphics/SVG/1.1/DTD/svg11.dtd">
<svg version="1.1" id="Layer_1" xmlns="http://www.w3.org/2000/svg" xmlns:xlink="http://www.w3.org/1999/xlink" x="0px" y="0px"
	 width="98.62px" height="98.622px" viewBox="0 0 98.62 98.622" enable-background="new 0 0 98.62 98.622" xml:space="preserve">
<path fill="#969699" d="M0,49.101C0.007,21.79,21.817-0.009,49.127,0c27.482,0.009,49.641,22.172,49.492,49.503
	c-0.148,27.374-22.278,49.171-49.868,49.119C21.593,98.571-0.007,76.63,0,49.101z M49.576,4.168
	C24.822,4.037,4.285,24.05,4.167,48.419C4.043,73.733,24.076,94.416,48.836,94.541c24.594,0.124,45.241-20.134,45.699-44.837
	C94.985,25.404,74.146,4.298,49.576,4.168z"/>
<path fill="#949497" d="M53.175,39.523c0.003,5.659-0.039,11.319,0.021,16.978c0.028,2.668-0.785,4.827-3.705,4.892
	c-2.919,0.065-4.5-1.675-4.493-4.749c0.024-11.485,0.019-22.97-0.015-34.454c-0.009-2.976,1.216-4.926,4.318-4.891
	c2.938,0.034,3.895,2.051,3.881,4.747C53.151,27.871,53.172,33.697,53.175,39.523z"/>
<path fill="#98999C" d="M54.138,74.536c-0.326,3.141-1.824,5.115-5.057,5.001c-3.139-0.111-4.888-2.054-4.905-5.12
	c-0.018-3.182,1.883-4.82,5.048-4.831C52.536,69.575,53.832,71.612,54.138,74.536z"/>
</svg>
