<?xml version="1.0" encoding="utf-8"?>
<!-- Generator: Adobe Illustrator 17.0.0, SVG Export Plug-In . SVG Version: 6.00 Build 0)  -->
<!DOCTYPE svg PUBLIC "-//W3C//DTD SVG 1.1//EN" "http://www.w3.org/Graphics/SVG/1.1/DTD/svg11.dtd">
<svg version="1.1" id="Layer_1" xmlns="http://www.w3.org/2000/svg" xmlns:xlink="http://www.w3.org/1999/xlink" x="0px" y="0px"
	 width="100.399px" height="100.232px" viewBox="0 0 100.399 100.232" enable-background="new 0 0 100.399 100.232"
	 xml:space="preserve">
<path fill="#908E92" d="M14.912,46.754c3.646,0,7.297-0.121,10.936,0.046c2.132,0.098,4.047,1.14,3.908,3.6
	c-0.13,2.295-2.053,2.741-4.026,2.741c-7.293,0.001-14.587-0.001-21.88-0.001c-1.993,0-3.728-0.435-3.844-2.86
	c-0.113-2.353,1.545-3.301,3.48-3.389c3.802-0.173,7.617-0.051,11.426-0.051C14.911,46.812,14.912,46.783,14.912,46.754z"/>
<path fill="#88868B" d="M9.414,76.899c-1.424-0.211-2.543-0.863-2.938-2.318c-0.379-1.395-0.124-2.761,1.176-3.517
	c6.883-4.006,13.786-7.979,20.733-11.871c1.441-0.807,2.97-0.503,3.963,0.96c1.144,1.685,0.685,3.472-0.832,4.377
	c-6.979,4.166-14.076,8.133-21.14,12.155C10.103,76.841,9.737,76.833,9.414,76.899z"/>
<path fill="#79777C" d="M41.623,70.823c-0.204,0.513-0.422,1.326-0.826,2.033c-3.555,6.211-7.132,12.409-10.73,18.595
	c-1.06,1.823-2.4,3.517-4.771,2.245c-2.525-1.354-2.105-3.444-0.876-5.553c3.518-6.039,7.03-12.081,10.521-18.136
	c0.995-1.726,2.258-2.959,4.41-2.412C40.787,67.961,41.551,69.009,41.623,70.823z"/>
<path fill="#BAB8BB" d="M41.487,29.56c-0.003,1.422-0.438,2.43-1.686,2.922c-1.569,0.619-3.077,0.409-3.943-1.055
	c-4.041-6.834-8.002-13.715-11.942-20.608c-0.861-1.507-0.532-3.003,0.96-3.892c1.542-0.919,3.316-1.04,4.35,0.72
	c4.024,6.843,7.937,13.752,11.871,20.648C41.335,28.712,41.39,29.232,41.487,29.56z"/>
<path fill="#A8A6AA" d="M9.699,23.39c0.887,0.423,1.96,0.852,2.952,1.423c5.735,3.303,11.444,6.652,17.178,9.958
	c1.946,1.122,4.01,2.327,2.657,4.96c-1.359,2.647-3.48,1.807-5.505,0.634c-6.157-3.564-12.308-7.139-18.51-10.624
	c-1.709-0.961-2.413-2.212-1.891-4.068C6.979,24.251,7.982,23.491,9.699,23.39z"/>
<path fill="#F3F4F4" d="M71.824,41.382c-2.753,0.13-3.703-0.681-4.191-2.049c-0.514-1.444-0.01-2.74,1.209-3.461
	c6.954-4.111,13.945-8.159,20.965-12.157c1.275-0.726,2.596-0.401,3.546,0.798c0.919,1.159,1.151,3.132,0.302,3.667
	C86.162,32.91,78.507,37.385,71.824,41.382z"/>
<path fill="#42454A" d="M85.522,53.385c-3.496,0-6.992,0.029-10.488-0.011c-1.961-0.023-3.792-0.46-3.866-2.901
	c-0.064-2.145,1.301-3.73,3.253-3.776c7.478-0.176,14.965-0.149,22.443,0.045c1.888,0.049,3.602,1.389,3.532,3.546
	c-0.073,2.263-1.944,2.985-3.889,3.039c-3.659,0.102-7.324,0.029-10.986,0.029C85.522,53.366,85.522,53.376,85.522,53.385z"/>
<path fill="#E0E0E1" d="M77.059,9.842c-4.439,7.207-8.146,15.345-13.549,22.467c-0.854,1.126-2.439,0.649-3.597-0.29
	c-1.258-1.019-1.345-2.453-0.7-3.606c3.878-6.939,7.878-13.811,11.867-20.688c0.922-1.59,2.498-1.599,3.962-1.136
	C76.203,6.956,76.751,8.069,77.059,9.842z"/>
<path fill="#505055" d="M71.044,58.676c0.721,0.332,1.653,0.676,2.502,1.165c5.873,3.387,11.705,6.847,17.604,10.188
	c2.148,1.217,3.534,2.695,2.191,5.16c-1.536,2.82-3.442,1.418-5.396,0.291c-5.873-3.388-11.818-6.651-17.712-10.003
	c-1.825-1.038-3.282-2.464-2.549-4.784C68.11,59.346,69.341,58.704,71.044,58.676z"/>
<path fill="#5D5C61" d="M61.472,67.533c2.071,0.112,2.947,1.029,3.647,2.237c3.572,6.157,7.166,12.302,10.738,18.46
	c1.236,2.131,1.441,4.231-1.073,5.49c-2.54,1.272-3.469-0.806-4.485-2.568c-3.472-6.023-7.037-11.993-10.443-18.053
	C58.418,70.54,58.656,68.354,61.472,67.533z"/>
<path fill="#D1D0D3" d="M52.966,14.926c-0.001,3.823-0.059,7.648,0.024,11.469c0.039,1.795-0.732,3-2.385,3.249
	c-1.95,0.293-3.456-1.05-3.495-2.767c-0.178-7.972-0.155-15.953-0.003-23.927c0.033-1.75,1.276-3.087,3.336-2.939
	c2.136,0.153,2.611,1.503,2.556,3.446C52.892,7.278,52.968,11.103,52.966,14.926z"/>
<path fill="#6F6C71" d="M52.934,85.896c0,3.643,0.005,7.285-0.002,10.928c-0.004,1.862-0.635,3.329-2.743,3.405
	c-2.051,0.073-3.088-1.284-3.108-3.127c-0.082-7.614-0.099-15.23,0.017-22.843c0.03-1.998,1.28-3.628,3.427-3.5
	c2.062,0.123,2.426,1.933,2.426,3.712c0,3.808,0,7.617,0,11.425C52.945,85.896,52.939,85.896,52.934,85.896z"/>
</svg>
