<?xml version="1.0" encoding="utf-8"?>
<!-- Generator: Adobe Illustrator 17.0.0, SVG Export Plug-In . SVG Version: 6.00 Build 0)  -->
<!DOCTYPE svg PUBLIC "-//W3C//DTD SVG 1.1//EN" "http://www.w3.org/Graphics/SVG/1.1/DTD/svg11.dtd">
<svg version="1.1" id="Layer_1" xmlns="http://www.w3.org/2000/svg" xmlns:xlink="http://www.w3.org/1999/xlink" x="0px" y="0px"
	 width="98.505px" height="98.508px" viewBox="0 0 98.505 98.508" enable-background="new 0 0 98.505 98.508" xml:space="preserve">
<path fill="#9A9CA0" d="M98.505,49.169c0.009,27.55-21.54,49.3-48.882,49.339C22.08,98.548-0.206,76.358,0.001,49.1
	C0.209,21.824,22.172,0.011,49.438,0C76.836-0.011,98.496,21.695,98.505,49.169z M94.515,49.567
	C94.54,24.601,74.423,4.098,49.823,4.019C24.918,3.938,4.138,24.442,4.024,49.21C3.912,73.577,24.684,94.397,49.23,94.517
	C73.982,94.639,94.49,74.283,94.515,49.567z"/>
<path fill="#989A9E" d="M78.251,33.248c-0.43,0.673-0.85,1.583-1.49,2.295C66.317,47.159,55.767,58.68,45.436,70.396
	c-2.609,2.958-4.443,3.044-7.273,0.342c-5.283-5.043-10.935-9.697-16.305-14.652c-1.303-1.202-4.115-2.557-2.215-4.718
	c1.832-2.084,3.503,0.242,4.953,1.523c4.606,4.068,9.488,7.873,13.71,12.306c2.768,2.907,4.217,2.368,6.518-0.268
	c8.736-10.011,17.623-19.891,26.478-29.797c1.218-1.362,2.421-2.831,3.912-3.829C76.857,30.203,78.018,30.97,78.251,33.248z"/>
</svg>
