<?xml version="1.0" encoding="utf-8"?>
<!-- Generator: Adobe Illustrator 17.0.0, SVG Export Plug-In . SVG Version: 6.00 Build 0)  -->
<!DOCTYPE svg PUBLIC "-//W3C//DTD SVG 1.1//EN" "http://www.w3.org/Graphics/SVG/1.1/DTD/svg11.dtd">
<svg version="1.1" id="Layer_1" xmlns="http://www.w3.org/2000/svg" xmlns:xlink="http://www.w3.org/1999/xlink" x="0px" y="0px"
	 width="60.823px" height="43.313px" viewBox="0 0 60.823 43.313" enable-background="new 0 0 60.823 43.313" xml:space="preserve">
<path fill="#C1C1C2" d="M2.245,20.173c1.093,0.768,2.392,1.506,3.485,2.477c4.841,4.299,9.857,8.44,14.338,13.093
	c2.608,2.708,3.88,2.182,6.067-0.298C36.01,24.242,46.096,13.227,55.987,2.038c1.229-1.39,2.378-2.815,3.993-1.545
	c1.833,1.443,0.267,3.014-0.814,4.223c-11.06,12.359-22.172,24.672-33.213,37.049c-1.66,1.861-2.983,2.128-4.939,0.341
	C14.408,36.072,7.677,30.174,1.007,24.211c-0.78-0.698-1.209-1.595-0.912-2.67C0.359,20.58,1.241,20.451,2.245,20.173z"/>
</svg>
